<?xml version="1.0" encoding="UTF-8" standalone="no"?><!DOCTYPE svg PUBLIC "-//W3C//DTD SVG 1.1//EN" "http://www.w3.org/Graphics/SVG/1.1/DTD/svg11.dtd"><svg width="100%" height="100%" viewBox="0 0 300 90" version="1.1" xmlns="http://www.w3.org/2000/svg" xmlns:xlink="http://www.w3.org/1999/xlink" xml:space="preserve" xmlns:serif="http://www.serif.com/" style="fill-rule:evenodd;clip-rule:evenodd;stroke-linecap:round;stroke-miterlimit:1.5;"><g><path d="M221.115,30.672l0,-27.672l-158.652,0l0,84l158.652,0l0,-10.853" style="fill:none;stroke:#000;stroke-width:3px;"/><path d="M76.797,30.33l3.42,0l0,9.45l0.18,0c0.36,-1.44 0.99,-2.805 1.89,-4.095c0.9,-1.29 1.995,-2.415 3.285,-3.375c1.29,-0.96 2.73,-1.71 4.32,-2.25c1.59,-0.54 3.255,-0.81 4.995,-0.81c2.22,0 4.14,0.285 5.76,0.855c1.62,0.57 3,1.32 4.14,2.25c1.14,0.93 2.04,1.98 2.7,3.15c0.66,1.17 1.11,2.355 1.35,3.555l0.18,0c1.38,-3.24 3.225,-5.685 5.535,-7.335c2.31,-1.65 5.355,-2.475 9.135,-2.475c2.1,0 4.035,0.315 5.805,0.945c1.77,0.63 3.3,1.59 4.59,2.88c1.29,1.29 2.295,2.925 3.015,4.905c0.72,1.98 1.08,4.32 1.08,7.02l0,31.59l-3.42,0l0,-31.68c0,-2.94 -0.45,-5.25 -1.35,-6.93c-0.9,-1.68 -1.965,-2.955 -3.195,-3.825c-1.23,-0.87 -2.46,-1.41 -3.69,-1.62c-1.23,-0.21 -2.175,-0.315 -2.835,-0.315c-2.1,0 -4.035,0.36 -5.805,1.08c-1.77,0.72 -3.3,1.8 -4.59,3.24c-1.29,1.44 -2.295,3.225 -3.015,5.355c-0.72,2.13 -1.08,4.575 -1.08,7.335l0,27.36l-3.42,0l0,-31.68c0,-2.88 -0.435,-5.175 -1.305,-6.885c-0.87,-1.71 -1.89,-2.985 -3.06,-3.825c-1.17,-0.84 -2.37,-1.38 -3.6,-1.62c-1.23,-0.24 -2.205,-0.36 -2.925,-0.36c-1.62,0 -3.3,0.33 -5.04,0.99c-1.74,0.66 -3.33,1.68 -4.77,3.06c-1.44,1.38 -2.61,3.15 -3.51,5.31c-0.9,2.16 -1.35,4.71 -1.35,7.65l0,27.36l-3.42,0l0,-46.26Z" style="fill-rule:nonzero;"/><path d="M149.157,12.33l3.42,0l0,27.81l0.18,0c0.66,-1.8 1.59,-3.375 2.79,-4.725c1.2,-1.35 2.58,-2.49 4.14,-3.42c1.56,-0.93 3.24,-1.62 5.04,-2.07c1.8,-0.45 3.66,-0.675 5.58,-0.675c3.42,0 6.375,0.6 8.865,1.8c2.49,1.2 4.575,2.85 6.255,4.95c1.68,2.1 2.925,4.545 3.735,7.335c0.81,2.79 1.215,5.805 1.215,9.045c0,5.52 -0.75,9.945 -2.25,13.275c-1.5,3.33 -3.3,5.88 -5.4,7.65c-2.1,1.77 -4.29,2.94 -6.57,3.51c-2.28,0.57 -4.23,0.855 -5.85,0.855c-3.06,0 -5.655,-0.48 -7.785,-1.44c-2.13,-0.96 -3.885,-2.085 -5.265,-3.375c-1.38,-1.29 -2.43,-2.565 -3.15,-3.825c-0.72,-1.26 -1.17,-2.19 -1.35,-2.79l-0.18,0l0,10.35l-3.42,0l0,-64.26Zm21.15,62.37c3.06,0 5.64,-0.66 7.74,-1.98c2.1,-1.32 3.81,-3.045 5.13,-5.175c1.32,-2.13 2.28,-4.53 2.88,-7.2c0.6,-2.67 0.9,-5.325 0.9,-7.965c0,-2.58 -0.345,-5.07 -1.035,-7.47c-0.69,-2.4 -1.74,-4.545 -3.15,-6.435c-1.41,-1.89 -3.15,-3.405 -5.22,-4.545c-2.07,-1.14 -4.485,-1.71 -7.245,-1.71c-3,0 -5.61,0.51 -7.83,1.53c-2.22,1.02 -4.05,2.43 -5.49,4.23c-1.44,1.8 -2.52,3.93 -3.24,6.39c-0.72,2.46 -1.08,5.13 -1.08,8.01c0,2.82 0.33,5.58 0.99,8.28c0.66,2.7 1.695,5.085 3.105,7.155c1.41,2.07 3.225,3.735 5.445,4.995c2.22,1.26 4.92,1.89 8.1,1.89Z" style="fill-rule:nonzero;"/><path d="M234.117,66.69l-0.18,0c-1.92,3.66 -4.32,6.405 -7.2,8.235c-2.88,1.83 -6.39,2.745 -10.53,2.745c-3.48,0 -6.48,-0.66 -9,-1.98c-2.52,-1.32 -4.59,-3.09 -6.21,-5.31c-1.62,-2.22 -2.82,-4.785 -3.6,-7.695c-0.78,-2.91 -1.17,-5.955 -1.17,-9.135c0,-3.42 0.42,-6.615 1.26,-9.585c0.84,-2.97 2.115,-5.535 3.825,-7.695c1.71,-2.16 3.855,-3.87 6.435,-5.13c2.58,-1.26 5.61,-1.89 9.09,-1.89c1.86,0 3.69,0.255 5.49,0.765c1.8,0.51 3.465,1.245 4.995,2.205c1.53,0.96 2.865,2.16 4.005,3.6c1.14,1.44 2.01,3.06 2.61,4.86l0.18,0l0,-28.35l3.42,0l0,64.26l-3.42,0l0,-9.9Zm-17.19,8.01c2.94,0 5.475,-0.6 7.605,-1.8c2.13,-1.2 3.9,-2.79 5.31,-4.77c1.41,-1.98 2.46,-4.245 3.15,-6.795c0.69,-2.55 1.035,-5.145 1.035,-7.785c0,-2.7 -0.345,-5.325 -1.035,-7.875c-0.69,-2.55 -1.725,-4.83 -3.105,-6.84c-1.38,-2.01 -3.165,-3.615 -5.355,-4.815c-2.19,-1.2 -4.755,-1.8 -7.695,-1.8c-3.06,0 -5.67,0.585 -7.83,1.755c-2.16,1.17 -3.945,2.745 -5.355,4.725c-1.41,1.98 -2.43,4.26 -3.06,6.84c-0.63,2.58 -0.945,5.25 -0.945,8.01c0,2.7 0.345,5.325 1.035,7.875c0.69,2.55 1.74,4.815 3.15,6.795c1.41,1.98 3.195,3.555 5.355,4.725c2.16,1.17 4.74,1.755 7.74,1.755Z" style="fill-rule:nonzero;"/></g></svg>